<svg xmlns="http://www.w3.org/2000/svg" xmlns:xlink="http://www.w3.org/1999/xlink" width="500" zoomAndPan="magnify" viewBox="0 0 375 374.999991" height="500" preserveAspectRatio="xMidYMid meet" version="1.0"><defs><clipPath id="44c19016a1"><path d="M 85.035156 124.234375 L 139 124.234375 L 139 189 L 85.035156 189 Z M 85.035156 124.234375 " clip-rule="nonzero"/></clipPath><clipPath id="a0586ec2e0"><path d="M 103 131 L 157.035156 131 L 157.035156 196.234375 L 103 196.234375 Z M 103 131 " clip-rule="nonzero"/></clipPath></defs><path fill="#ffffff" d="M 184.585938 168.90625 L 179.867188 168.90625 L 179.867188 161.828125 L 174.429688 161.828125 L 174.429688 168.90625 L 169.710938 168.90625 L 169.710938 151.546875 L 174.429688 151.546875 L 174.429688 157.984375 L 179.867188 157.984375 L 179.867188 151.546875 L 184.585938 151.546875 Z M 184.585938 168.90625 " fill-opacity="1" fill-rule="nonzero"/><path fill="#ffffff" d="M 205.140625 168.90625 L 204.28125 165.65625 L 198.640625 165.65625 L 197.765625 168.90625 L 192.609375 168.90625 L 198.265625 151.484375 L 204.53125 151.484375 L 210.265625 168.90625 Z M 203.3125 161.8125 L 202.5625 158.953125 C 202.382812 158.328125 202.171875 157.515625 201.921875 156.515625 C 201.671875 155.507812 201.507812 154.78125 201.4375 154.34375 C 201.363281 154.75 201.21875 155.417969 201 156.34375 C 200.789062 157.261719 200.328125 159.085938 199.609375 161.8125 Z M 203.3125 161.8125 " fill-opacity="1" fill-rule="nonzero"/><path fill="#ffffff" d="M 222.90625 168.90625 L 218.28125 168.90625 L 218.28125 151.546875 L 228.53125 151.546875 L 228.53125 155.3125 L 222.90625 155.3125 L 222.90625 158.625 L 228.09375 158.625 L 228.09375 162.390625 L 222.90625 162.390625 Z M 222.90625 168.90625 " fill-opacity="1" fill-rule="nonzero"/><path fill="#ffffff" d="M 248.882812 163.640625 C 248.882812 164.714844 248.609375 165.667969 248.070312 166.5 C 247.527344 167.335938 246.742188 167.984375 245.710938 168.453125 C 244.679688 168.910156 243.46875 169.140625 242.085938 169.140625 C 240.929688 169.140625 239.960938 169.0625 239.179688 168.90625 C 238.398438 168.742188 237.578125 168.453125 236.726562 168.046875 L 236.726562 163.875 C 237.621094 164.335938 238.554688 164.695312 239.523438 164.953125 C 240.492188 165.203125 241.375 165.328125 242.179688 165.328125 C 242.875 165.328125 243.386719 165.210938 243.710938 164.96875 C 244.03125 164.730469 244.195312 164.417969 244.195312 164.03125 C 244.195312 163.804688 244.125 163.601562 243.992188 163.421875 C 243.867188 163.246094 243.65625 163.070312 243.367188 162.890625 C 243.085938 162.703125 242.320312 162.328125 241.070312 161.765625 C 239.933594 161.246094 239.078125 160.746094 238.507812 160.265625 C 237.945312 159.789062 237.527344 159.234375 237.257812 158.609375 C 236.984375 157.984375 236.851562 157.242188 236.851562 156.375 C 236.851562 154.78125 237.429688 153.539062 238.585938 152.640625 C 239.75 151.746094 241.355469 151.296875 243.398438 151.296875 C 245.1875 151.296875 247.015625 151.714844 248.882812 152.546875 L 247.445312 156.171875 C 245.828125 155.421875 244.429688 155.046875 243.242188 155.046875 C 242.636719 155.046875 242.195312 155.15625 241.914062 155.375 C 241.640625 155.585938 241.507812 155.851562 241.507812 156.171875 C 241.507812 156.507812 241.679688 156.808594 242.023438 157.078125 C 242.375 157.351562 243.335938 157.839844 244.898438 158.546875 C 246.398438 159.226562 247.433594 159.949219 248.007812 160.71875 C 248.589844 161.492188 248.882812 162.464844 248.882812 163.640625 Z M 248.882812 163.640625 " fill-opacity="1" fill-rule="nonzero"/><path fill="#ffffff" d="M 268.375 168.90625 L 267.515625 165.65625 L 261.875 165.65625 L 261 168.90625 L 255.84375 168.90625 L 261.5 151.484375 L 267.765625 151.484375 L 273.5 168.90625 Z M 266.546875 161.8125 L 265.796875 158.953125 C 265.617188 158.328125 265.40625 157.515625 265.15625 156.515625 C 264.90625 155.507812 264.742188 154.78125 264.671875 154.34375 C 264.597656 154.75 264.453125 155.417969 264.234375 156.34375 C 264.023438 157.261719 263.5625 159.085938 262.84375 161.8125 Z M 266.546875 161.8125 " fill-opacity="1" fill-rule="nonzero"/><path fill="#e87a00" d="M 112.746094 155.429688 L 112.746094 140.324219 L 103.453125 140.324219 L 103.453125 164.726562 L 129.308594 164.726562 L 129.308594 180.125 L 138.601562 180.125 L 138.601562 155.429688 L 112.746094 155.429688 " fill-opacity="1" fill-rule="nonzero"/><g clip-path="url(#44c19016a1)"><path fill="#ffffff" d="M 121.027344 131.789062 C 123.90625 131.789062 126.6875 132.21875 129.308594 133.015625 L 129.308594 152.234375 L 138.601562 152.234375 L 138.601562 128.804688 C 136.992188 127.902344 135.300781 127.121094 133.550781 126.472656 L 133.550781 126.464844 C 133.371094 126.398438 133.195312 126.335938 133.015625 126.273438 C 132.980469 126.261719 132.941406 126.246094 132.90625 126.234375 C 132.550781 126.113281 132.195312 125.996094 131.835938 125.882812 C 131.769531 125.859375 131.703125 125.839844 131.636719 125.820312 C 131.273438 125.707031 130.90625 125.597656 130.535156 125.496094 C 130.160156 125.394531 129.785156 125.300781 129.410156 125.210938 C 129.375 125.203125 129.339844 125.191406 129.308594 125.183594 L 129.308594 125.1875 C 126.648438 124.5625 123.878906 124.226562 121.027344 124.226562 C 101.148438 124.226562 85.03125 140.34375 85.03125 160.222656 C 85.03125 171.71875 90.417969 181.953125 98.804688 188.542969 L 98.804688 177.960938 C 94.917969 173.097656 92.59375 166.933594 92.59375 160.222656 C 92.59375 144.519531 105.324219 131.789062 121.027344 131.789062 " fill-opacity="1" fill-rule="nonzero"/></g><g clip-path="url(#a0586ec2e0)"><path fill="#e87a00" d="M 142.84375 131.59375 L 142.84375 141.992188 C 146.976562 146.925781 149.460938 153.285156 149.460938 160.222656 C 149.460938 175.929688 136.730469 188.660156 121.027344 188.660156 C 118.148438 188.660156 115.367188 188.230469 112.746094 187.433594 L 112.746094 168.210938 L 103.453125 168.210938 L 103.453125 191.644531 C 104.941406 192.476562 106.492188 193.207031 108.101562 193.824219 L 108.101562 193.828125 C 108.398438 193.941406 108.703125 194.054688 109.007812 194.160156 C 109.097656 194.195312 109.191406 194.226562 109.285156 194.257812 C 109.578125 194.359375 109.871094 194.457031 110.167969 194.550781 C 110.230469 194.570312 110.292969 194.589844 110.355469 194.609375 C 110.699219 194.714844 111.042969 194.816406 111.390625 194.914062 C 111.484375 194.9375 111.578125 194.964844 111.667969 194.988281 C 112.023438 195.082031 112.382812 195.175781 112.742188 195.261719 C 112.746094 195.261719 112.746094 195.261719 112.746094 195.261719 C 115.40625 195.890625 118.179688 196.222656 121.027344 196.222656 C 140.90625 196.222656 157.023438 180.105469 157.023438 160.222656 C 157.023438 148.546875 151.460938 138.171875 142.84375 131.59375 " fill-opacity="1" fill-rule="nonzero"/></g></svg>