<svg xmlns="http://www.w3.org/2000/svg" xmlns:xlink="http://www.w3.org/1999/xlink" width="500" zoomAndPan="magnify" viewBox="0 0 375 374.999991" height="500" preserveAspectRatio="xMidYMid meet" version="1.0"><path fill="#e87a00" d="M 144.328125 162.488281 L 144.328125 83.8125 L 95.917969 83.8125 L 95.917969 210.902344 L 230.578125 210.902344 L 230.578125 291.097656 L 278.992188 291.097656 L 278.992188 162.488281 L 144.328125 162.488281 " fill-opacity="1" fill-rule="nonzero"/><path fill="#04091e" d="M 187.453125 39.355469 C 202.457031 39.355469 216.929688 41.601562 230.578125 45.75 L 230.578125 145.847656 L 278.992188 145.847656 L 278.992188 23.808594 C 270.601562 19.109375 261.800781 15.050781 252.675781 11.664062 L 252.675781 11.632812 C 251.75 11.289062 250.820312 10.964844 249.886719 10.632812 C 249.699219 10.566406 249.511719 10.496094 249.320312 10.429688 C 247.480469 9.785156 245.625 9.175781 243.757812 8.589844 C 243.410156 8.476562 243.0625 8.371094 242.710938 8.261719 C 240.8125 7.679688 238.898438 7.113281 236.972656 6.585938 C 236.972656 6.585938 236.96875 6.585938 236.964844 6.582031 C 235.023438 6.050781 233.070312 5.5625 231.101562 5.09375 C 230.925781 5.050781 230.75 5 230.578125 4.960938 L 230.578125 4.96875 C 216.726562 1.707031 202.296875 -0.03125 187.453125 -0.03125 C 83.910156 -0.03125 -0.03125 83.910156 -0.03125 187.453125 C -0.03125 247.316406 28.027344 300.625 71.707031 334.953125 L 71.707031 279.835938 C 51.460938 254.503906 39.359375 222.394531 39.359375 187.453125 C 39.359375 105.660156 105.660156 39.355469 187.453125 39.355469 " fill-opacity="1" fill-rule="nonzero"/><path fill="#e87a00" d="M 301.089844 38.339844 L 301.089844 92.488281 C 322.597656 118.199219 335.550781 151.3125 335.550781 187.453125 C 335.550781 269.246094 269.246094 335.550781 187.453125 335.550781 C 172.453125 335.550781 157.976562 333.316406 144.328125 329.167969 L 144.328125 229.058594 L 95.917969 229.058594 L 95.917969 351.097656 C 103.664062 355.4375 111.75 359.234375 120.121094 362.460938 L 120.121094 362.472656 C 121.683594 363.074219 123.261719 363.648438 124.839844 364.207031 C 125.328125 364.378906 125.816406 364.546875 126.300781 364.714844 C 127.820312 365.238281 129.347656 365.746094 130.882812 366.230469 C 131.214844 366.335938 131.546875 366.445312 131.875 366.546875 C 133.652344 367.101562 135.449219 367.621094 137.257812 368.125 C 137.742188 368.253906 138.226562 368.386719 138.714844 368.519531 C 140.566406 369.015625 142.425781 369.496094 144.300781 369.9375 C 144.3125 369.941406 144.324219 369.941406 144.328125 369.945312 C 158.175781 373.210938 172.609375 374.9375 187.453125 374.9375 C 290.996094 374.9375 374.9375 290.996094 374.9375 187.453125 C 374.9375 126.632812 345.96875 72.589844 301.089844 38.339844 " fill-opacity="1" fill-rule="nonzero"/></svg>